<svg width="130" height="130" viewBox="0 0 130 130" fill="none" xmlns="http://www.w3.org/2000/svg">
<path d="M30.2115 102.926C50.4915 103.949 70.8749 99.8564 86.0429 84.9893C99.7336 71.5699 102.411 53.3962 82.3945 44.7932C72.9192 40.7206 58.9623 42.2256 52.8631 51.3822C46.0681 61.5834 60.5684 68.5091 68.6955 68.1602C87.6772 67.3456 105.607 51.8156 106.381 31.0126C107.299 6.37692 82.1139 9.36325 82.188 9.51467" stroke="#6C5FBC" stroke-width="2.88658" stroke-miterlimit="1.5" stroke-linecap="round" stroke-linejoin="round"/>
<path d="M44.9396 120.097C44.332 117.935 42.8977 116.262 41.5521 114.519C37.1345 108.794 30.5468 104.041 23.2442 102.907C31.1423 101.599 40.9557 97.2394 44.0835 89.4302" stroke="#6C5FBC" stroke-width="2.88658" stroke-miterlimit="1.5" stroke-linecap="round" stroke-linejoin="round"/>
</svg>
